<?xml version="1.0" encoding="UTF-8" standalone="no"?>
<svg fill="#1E60BD" width="416px" height="416px" viewBox="0 0 416 416" version="1.1" xmlns="http://www.w3.org/2000/svg" xmlns:xlink="http://www.w3.org/1999/xlink">
    <!-- Generator: Sketch 49.1 (51147) - http://www.bohemiancoding.com/sketch -->
    <title>checkmark-circle</title>
    <desc>Created with Sketch.</desc>
    <defs></defs>
    <g id="Page-1" stroke="none" stroke-width="1" fill="none" fill-rule="evenodd">
        <g id="checkmark-circle" fill="#935EA6" fill-rule="nonzero">
            <path d="M292.1,129.3 L167.3,255 L120.1,207.8 L102.3,225.6 L158.3,281.6 C160.8,284.1 164.2,286.1 167.2,286.1 C170.2,286.1 173.5,284.1 176,281.7 L309.7,147.3 L292.1,129.3 Z" id="Shape"></path>
            <path d="M208,0 C93.1,0 0,93.1 0,208 C0,322.9 93.1,416 208,416 C322.9,416 416,322.9 416,208 C416,93.1 322.9,0 208,0 Z M208,398.7 C102.9,398.7 17.3,313.2 17.3,208 C17.3,102.9 102.8,17.3 208,17.3 C313.1,17.3 398.7,102.8 398.7,208 C398.7,313.1 313.1,398.7 208,398.7 Z" id="Shape"></path>
        </g>
    </g>
</svg>